<?xml version="1.0" encoding="iso-8859-1"?>
<!-- Uploaded to: SVG Repo, www.svgrepo.com, Generator: SVG Repo Mixer Tools -->
<svg height="800px" width="800px" version="1.1" id="Layer_1" xmlns="http://www.w3.org/2000/svg" xmlns:xlink="http://www.w3.org/1999/xlink" 
	 viewBox="0 0 512 512" xml:space="preserve">
<g transform="translate(1)">
	<path style="fill:#FFE100;" d="M363.187,200.533l-16.213-29.867c-15.36-28.16-23.04-59.733-23.04-91.307V76.8h-0.853
		c9.387,0,17.92-7.68,17.92-17.92V26.453c0-10.24-8.533-17.92-17.92-17.92h-25.6c9.387,0,17.92,7.68,17.92,17.92V58.88
		c0,10.24-8.533,17.92-17.92,17.92h-7.68v2.56c0,31.573,27.307,63.147,38.4,91.307l11.947,29.867
		c5.973,13.653,8.533,29.867,8.533,45.227v234.667c0,12.8-7.68,22.187-17.067,22.187h19.627c12.8,0,22.187-10.24,22.187-22.187
		V245.76C375.133,230.4,370.867,214.187,363.187,200.533"/>
	<path style="fill:#FDCC00;" d="M271.88,76.8h-49.493c-10.24,0-17.92-7.68-17.92-17.92V26.453c0-10.24,7.68-17.92,17.92-17.92
		h49.493c9.387,0,17.92,7.68,17.92,17.92V58.88C289.8,69.12,281.267,76.8,271.88,76.8"/>
	<path style="fill:#FFFFFF;" d="M204.467,58.88V26.453c0-10.24,7.68-17.92,17.92-17.92h-25.6c-10.24,0-17.92,7.68-17.92,17.92V58.88
		c0,10.24,7.68,17.92,17.92,17.92h25.6C212.147,76.8,204.467,69.12,204.467,58.88"/>
	<path style="fill:#FFA800;" d="M297.48,8.533h-25.6c9.387,0,17.92,7.68,17.92,17.92V58.88c0,10.24-8.533,17.92-17.92,17.92h25.6
		c9.387,0,17.92-7.68,17.92-17.92V26.453C315.4,16.213,306.867,8.533,297.48,8.533"/>
	<path style="fill:#FFE100;" d="M306.867,503.467H187.4c-9.387,0-17.067-10.24-17.067-22.187V245.76
		c0-16.213,3.413-31.573,8.533-45.227l11.947-29.867c11.093-28.16,17.067-58.88,17.067-91.307V76.8h76.8v2.56
		c0,31.573,5.973,63.147,17.067,91.307l11.947,29.867c5.973,13.653,8.533,29.867,8.533,45.227v234.667
		C323.933,493.227,316.253,503.467,306.867,503.467"/>
	<path style="fill:#FFFFFF;" d="M170.333,481.28V245.76c0-16.213,3.413-31.573,8.533-45.227l11.947-29.867
		c11.093-28.16,17.067-58.88,17.067-91.307V76.8h-11.947v2.56c0,31.573-7.68,63.147-23.04,91.307l-16.213,29.867
		c-7.68,13.653-11.947,29.867-11.947,45.227v234.667c0,12.8,10.24,23.04,22.187,23.04h20.48
		C178.013,503.467,170.333,493.227,170.333,481.28"/>
	<path style="fill:#FFA800;" d="M335.88,200.533l-16.213-29.867c-15.36-28.16-23.04-59.733-23.04-91.307V76.8h-12.8v2.56
		c0,31.573,5.973,63.147,17.067,91.307l11.947,29.867c5.973,13.653,8.533,29.867,8.533,45.227v234.667
		c0,12.8-7.68,22.187-17.067,22.187h19.627c12.8,0,22.187-10.24,22.187-22.187V245.76C347.827,230.4,343.56,214.187,335.88,200.533"
		/>
	<path style="fill:#63D3FD;" d="M148.147,221.867c-2.56,7.68-3.413,16.213-3.413,23.893v155.307h179.2V245.76
		c0-8.533-0.853-16.213-3.413-23.893H148.147z"/>
	<path style="fill:#3DB9F9;" d="M346.12,221.867h-25.6c1.707,7.68,3.413,16.213,3.413,23.893v155.307h25.6V245.76
		C349.533,238.08,348.68,229.547,346.12,221.867"/>
	<path d="M326.493,512h-79.36c-5.12,0-8.533-3.413-8.533-8.533c0-5.12,3.413-8.533,8.533-8.533h80.213
		c7.68,0,13.653-5.973,13.653-13.653V245.76c0-14.507-3.413-29.013-10.24-41.813l-16.213-29.867
		c-15.36-27.307-23.04-58.027-23.893-89.6h-86.187c-0.853,31.573-9.387,62.293-23.893,89.6l-17.067,30.72
		c-6.827,12.8-10.24,27.307-10.24,40.96v234.667c0,8.533,5.973,14.507,13.653,14.507h11.947c5.12,0,8.533,3.413,8.533,8.533
		c0,5.12-3.413,8.533-8.533,8.533H166.92c-17.067,0-30.72-13.653-30.72-30.72V245.76c0-17.067,4.267-34.133,12.8-49.493
		l16.213-29.867c14.507-26.453,22.187-56.32,22.187-87.04V76.8c0-5.12,3.413-8.533,8.533-8.533h102.4
		c5.12,0,8.533,3.413,8.533,8.533v2.56c0,30.72,7.68,60.587,22.187,87.04l16.213,29.867c8.533,15.36,12.8,32.427,12.8,49.493
		v234.667C358.067,498.347,344.413,512,326.493,512z"/>
	<path d="M221.533,503.467c0-5.12-3.413-8.533-8.533-8.533s-8.533,3.413-8.533,8.533c0,5.12,3.413,8.533,8.533,8.533
		S221.533,508.587,221.533,503.467"/>
	<path d="M297.48,85.333H196.787c-14.507,0-26.453-11.947-26.453-26.453V26.453C170.333,11.947,182.28,0,196.787,0H297.48
		c14.507,0,26.453,11.947,26.453,26.453V58.88C323.933,73.387,311.987,85.333,297.48,85.333z M196.787,17.067
		c-5.12,0-9.387,4.267-9.387,9.387V58.88c0,5.12,4.267,9.387,9.387,9.387H297.48c5.12,0,9.387-4.267,9.387-9.387V26.453
		c0-5.12-4.267-9.387-9.387-9.387H196.787z"/>
	<path d="M204.467,51.2h-25.6c-5.12,0-8.533-3.413-8.533-8.533s3.413-8.533,8.533-8.533h25.6c5.12,0,8.533,3.413,8.533,8.533
		S208.733,51.2,204.467,51.2z"/>
	<path d="M315.4,51.2h-59.733c-5.12,0-8.533-3.413-8.533-8.533s3.413-8.533,8.533-8.533H315.4c5.12,0,8.533,3.413,8.533,8.533
		S319.667,51.2,315.4,51.2z"/>
	<path d="M230.067,375.467c-1.707,0-4.267-0.853-5.973-1.707c-3.413-3.413-4.267-8.533-0.853-11.947l39.253-45.227H213
		c-3.413,0-6.827-1.707-7.68-5.12c-0.853-3.413-0.853-7.68,1.707-10.24l51.2-51.2c3.413-3.413,8.533-3.413,11.947,0
		s3.413,8.533,0,11.947l-36.693,36.693h47.787c3.413,0,5.973,1.707,7.68,5.12c1.707,3.413,0.853,6.827-0.853,9.387l-51.2,59.733
		C235.187,374.613,232.627,375.467,230.067,375.467z"/>
	<path d="M195.933,477.867h-51.2c-5.12,0-8.533-3.413-8.533-8.533c0-5.12,3.413-8.533,8.533-8.533h51.2
		c5.12,0,8.533,3.413,8.533,8.533C204.467,474.453,200.2,477.867,195.933,477.867z"/>
	<path d="M178.867,443.733h-34.133c-5.12,0-8.533-3.413-8.533-8.533c0-5.12,3.413-8.533,8.533-8.533h34.133
		c5.12,0,8.533,3.413,8.533,8.533C187.4,440.32,183.133,443.733,178.867,443.733z"/>
	<path d="M349.533,409.6h-204.8c-5.12,0-8.533-3.413-8.533-8.533V245.76c0-8.533,0.853-17.92,3.413-26.453
		c0.853-3.413,4.267-5.973,8.533-5.973H346.12c4.267,0,7.68,2.56,8.533,5.973c2.56,8.533,3.413,17.92,3.413,26.453v155.307
		C358.067,406.187,353.8,409.6,349.533,409.6z M153.267,392.533H341V245.76c0-5.12-0.853-10.24-1.707-15.36h-184.32
		c-1.707,5.12-1.707,10.24-1.707,15.36V392.533z"/>
</g>
</svg>